<?xml version="1.0" standalone="no"?>
<!DOCTYPE svg PUBLIC "-//W3C//DTD SVG 20010904//EN"
 "http://www.w3.org/TR/2001/REC-SVG-20010904/DTD/svg10.dtd">
<svg version="1.0" xmlns="http://www.w3.org/2000/svg"
 width="260.000000pt" height="260.000000pt" viewBox="0 0 260.000000 260.000000"
 preserveAspectRatio="xMidYMid meet">
<metadata>
Created by potrace 1.14, written by Peter Selinger 2001-2017
</metadata>
<g transform="translate(0.000000,260.000000) scale(0.100000,-0.100000)"
fill="#000000" stroke="none">
<path d="M630 2564 c-298 -64 -524 -291 -584 -586 -107 -521 361 -990 882
-882 88 18 180 53 236 90 21 14 36 22 34 17 -2 -4 -23 -46 -46 -93 -60 -122
-76 -193 -76 -330 0 -139 16 -208 81 -340 39 -80 61 -109 137 -186 77 -76 106
-98 186 -137 132 -65 201 -81 340 -81 139 0 208 16 340 81 80 39 109 61 186
137 76 77 98 106 137 186 65 132 81 201 81 340 0 139 -16 208 -81 340 -39 80
-61 109 -137 186 -77 76 -106 98 -186 137 -132 65 -201 81 -340 81 -138 0
-209 -16 -332 -77 -49 -24 -88 -42 -88 -40 0 2 11 20 25 41 89 135 126 352 89
530 -83 405 -486 672 -884 586z"/>
</g>
</svg>
